<?xml version="1.0" standalone="no"?>
<!DOCTYPE svg PUBLIC "-//W3C//DTD SVG 20010904//EN"
 "http://www.w3.org/TR/2001/REC-SVG-20010904/DTD/svg10.dtd">
<svg version="1.0" xmlns="http://www.w3.org/2000/svg"
 width="128.000000pt" height="128.000000pt" viewBox="0 0 128.000000 128.000000"
 preserveAspectRatio="xMidYMid meet">
<metadata>
Created by potrace 1.11, written by Peter Selinger 2001-2013
</metadata>
<g transform="translate(0.000000,128.000000) scale(0.100000,-0.100000)"
fill="#000000" stroke="none">
<path d="M698 1207 c-3 -19 -2 -25 4 -19 6 6 8 18 6 28 -3 14 -5 12 -10 -9z"/>
<path d="M840 1182 c-49 -6 -79 -24 -89 -53 -6 -18 -17 -29 -28 -28 -10 0 -13
3 -5 6 29 12 8 19 -35 13 -29 -5 -50 -4 -54 2 -4 6 -23 2 -48 -10 -22 -11 -39
-16 -35 -11 15 25 -24 4 -56 -30 -33 -34 -39 -37 -55 -25 -26 19 -49 17 -70
-6 -10 -11 -43 -29 -74 -40 -132 -48 -134 -57 -28 -154 77 -70 82 -73 103 -59
20 13 24 12 33 -6 6 -11 11 -29 11 -41 0 -11 7 -34 15 -50 9 -17 11 -30 6 -30
-20 0 -130 -92 -150 -125 -11 -20 -28 -35 -39 -35 -10 0 -24 -6 -31 -12 -11
-10 -13 -10 -7 0 9 16 -6 15 -29 -2 -11 -8 -25 -12 -31 -9 -7 2 -18 -11 -25
-31 -7 -19 -16 -33 -20 -30 -4 2 -4 -9 1 -25 4 -16 6 -32 3 -35 -3 -3 6 -21
21 -40 28 -38 77 -57 146 -58 31 0 40 -5 44 -22 9 -35 56 -77 120 -107 34 -16
73 -39 87 -50 54 -43 157 -16 146 37 -3 20 5 25 77 48 113 37 117 37 170 10
89 -45 131 -28 165 66 12 33 26 60 32 60 5 0 15 11 21 25 6 14 17 25 23 25 20
0 48 37 35 45 -7 4 -10 16 -7 26 3 11 2 19 -1 20 -29 3 -46 9 -52 19 -14 22
-146 -16 -155 -45 -3 -8 -7 -22 -10 -31 -4 -12 -10 -9 -31 15 -17 21 -23 37
-19 51 7 23 21 26 28 8 6 -14 10 16 7 45 -1 15 3 17 22 11 13 -4 49 -8 81 -10
49 -2 63 2 85 21 l27 24 -19 34 c-14 27 -33 42 -88 66 -38 17 -68 34 -66 38
34 67 39 87 28 114 -14 32 -51 60 -94 69 -27 5 -30 9 -32 50 -1 35 3 50 21 68
12 12 28 41 34 65 18 60 32 76 98 103 52 21 55 24 28 25 -69 4 -212 4 -235 1z
m-517 -842 c-6 -23 -8 -24 -34 -10 -21 12 -25 36 -6 43 22 8 46 -11 40 -33z"/>
<path d="M385 1160 c10 -11 20 -20 23 -20 3 0 -3 9 -13 20 -10 11 -20 20 -23
20 -3 0 3 -9 13 -20z"/>
<path d="M197 1059 c7 -7 15 -10 18 -7 3 3 -2 9 -12 12 -14 6 -15 5 -6 -5z"/>
<path d="M1070 1010 c-8 -5 -10 -10 -5 -10 6 0 17 5 25 10 8 5 11 10 5 10 -5
0 -17 -5 -25 -10z"/>
<path d="M1098 863 c7 -3 16 -2 19 1 4 3 -2 6 -13 5 -11 0 -14 -3 -6 -6z"/>
<path d="M118 843 c7 -3 16 -2 19 1 4 3 -2 6 -13 5 -11 0 -14 -3 -6 -6z"/>
<path d="M295 730 c-3 -6 1 -7 9 -4 18 7 21 14 7 14 -6 0 -13 -4 -16 -10z"/>
</g>
</svg>
